<?xml version="1.0" encoding="UTF-8"?>
<svg version="1.1" xmlns="http://www.w3.org/2000/svg" width="225" height="225">
<path d="M0 0 C74.25 0 148.5 0 225 0 C225 74.25 225 148.5 225 225 C150.75 225 76.5 225 0 225 C0 150.75 0 76.5 0 0 Z " fill="#7E7E7E" transform="translate(0,0)"/>
<path d="M0 0 C41.91 0 83.82 0 127 0 C127 41.58 127 83.16 127 126 C110.48517578 126.05607422 110.48517578 126.05607422 93.63671875 126.11328125 C86.67772159 126.14354339 79.71874135 126.17455685 72.75976562 126.20898438 C61.70484929 126.26353467 50.64997998 126.31494442 39.5949707 126.34643555 C31.54467635 126.3693816 23.49450472 126.40274138 15.44430763 126.44870156 C11.18024189 126.47267976 6.91629803 126.49137831 2.65216637 126.49761391 C-1.35911691 126.5036441 -5.37008814 126.52356839 -9.3812561 126.55427551 C-10.85546391 126.56308905 -12.32971244 126.56677149 -13.80394554 126.56500816 C-15.81292098 126.56336353 -17.82188333 126.58176979 -19.83076477 126.60127258 C-20.956274 126.60588155 -22.08178324 126.61049051 -23.24139881 126.61523914 C-26.00295255 126.78465677 -26.00295255 126.78465677 -27.8855772 128.33742046 C-29.2783932 130.08174008 -29.2783932 130.08174008 -29 133 C-29 134.66666667 -29 136.33333333 -29 138 C-32.6661394 138.19891332 -36.33290953 138.38204172 -40 138.5625 C-41.02996094 138.61857422 -42.05992188 138.67464844 -43.12109375 138.73242188 C-48.90793748 139.00886345 -54.27831174 138.92839894 -60 138 C-59.54177532 134.53058454 -59.10868317 131.32604951 -58 128 C-58 125.87489788 -58.023153 123.74973783 -58.0625 121.625 C-58.00929625 118.53918267 -57.63027392 115.9938011 -57 113 C-57.061875 112.175 -57.12375 111.35 -57.1875 110.5 C-56.92886871 107.05158284 -55.16634991 105.62587868 -53 103 C-52.32041397 100.60280568 -52.32041397 100.60280568 -52 98 C-51.67 96.948125 -51.34 95.89625 -51 94.8125 C-50.00899707 91.03430132 -49.55871132 87.50400979 -49.24609375 83.625 C-48.94412638 80.40401471 -48.45751351 77.20259456 -48 74 C-42.39 74 -36.78 74 -31 74 C-31 73.01 -31 72.02 -31 71 C-36.28 70.67 -41.56 70.34 -47 70 C-46.5162394 64.27549951 -45.81387343 58.875181 -44.46875 53.296875 C-43.95488001 50.77891204 -43.7120971 48.31031498 -43.5 45.75 C-43.18628499 42.11426715 -42.45399754 39.36236932 -41 36 C-40.835 34.845 -40.67 33.69 -40.5 32.5 C-40.04322933 29.30260532 -39.30092928 26.92709087 -38 24 C-37.67 23.01 -37.34 22.02 -37 21 C-31.39 21 -25.78 21 -20 21 C-19.525625 19.040625 -19.05125 17.08125 -18.5625 15.0625 C-17.125 9.125 -17.125 9.125 -16 8 C-13.65012738 7.76472227 -11.29443961 7.58613583 -8.9375 7.4375 C-7.64714844 7.35371094 -6.35679688 7.26992187 -5.02734375 7.18359375 C-4.02832031 7.12300781 -3.02929688 7.06242188 -2 7 C-1.34 4.69 -0.68 2.38 0 0 Z M-21 127 C-19 128 -19 128 -19 128 Z M-60 139 C-57.36 139 -54.72 139 -52 139 C-52.33 139.66 -52.66 140.32 -53 141 C-55.31 140.67 -57.62 140.34 -60 140 C-60 139.67 -60 139.34 -60 139 Z " fill="#717171" transform="translate(98,0)"/>
<path d="M0 0 C32.34 0 64.68 0 98 0 C97 7 97 7 96 8 C93.65012738 8.23527773 91.29443961 8.41386417 88.9375 8.5625 C87.64714844 8.64628906 86.35679688 8.73007813 85.02734375 8.81640625 C84.02832031 8.87699219 83.02929688 8.93757812 82 9 C79.33893999 16.79397532 79.33893999 16.79397532 77 24.6875 C75.7198055 28.92814427 73.79905871 32.95211789 72 37 C93.78 37.495 93.78 37.495 116 38 C118 47 118 47 117 51 C102.81 51.33 88.62 51.66 74 52 C73.34 54.31 72.68 56.62 72 59 C71.54210728 60.29936051 71.06678097 61.59292973 70.5625 62.875 C69.49231159 65.62791888 68.55819895 68.39052013 67.68359375 71.2109375 C66.09333089 76.00877974 63.92391468 80.32615572 61.5 84.75 C61.10941406 85.47832031 60.71882813 86.20664063 60.31640625 86.95703125 C59.5620813 88.35646911 58.79986903 89.75169402 58.02856445 91.1418457 C57.14562929 92.73691324 56.2942108 94.34935517 55.44921875 95.96484375 C54 98 54 98 50.3125 98.8125 C49.219375 98.874375 48.12625 98.93625 47 99 C46.505 100.485 46.505 100.485 46 102 C48.97 102.495 48.97 102.495 52 103 C51.54625 104.010625 51.0925 105.02125 50.625 106.0625 C47.84542581 112.60498831 46.60672499 118.95879681 46 126 C43.03 126.495 43.03 126.495 40 127 C42.97 127.495 42.97 127.495 46 128 C46 131.3 46 134.6 46 138 C46.66 137.67 47.32 137.34 48 137 C48 134.03 48 131.06 48 128 C48.65597168 127.97494385 49.31194336 127.9498877 49.98779297 127.92407227 C52.95040183 127.8082674 55.91268031 127.68547114 58.875 127.5625 C59.90753906 127.52318359 60.94007812 127.48386719 62.00390625 127.44335938 C62.99003906 127.40146484 63.97617187 127.35957031 64.9921875 127.31640625 C65.90339355 127.27974854 66.81459961 127.24309082 67.75341797 127.20532227 C70.03483481 127.13422935 70.03483481 127.13422935 72 126 C74.01453093 125.90594626 76.03225608 125.87809514 78.04898071 125.87974548 C79.33909561 125.87837082 80.62921051 125.87699615 81.9584198 125.87557983 C83.39627098 125.87911923 84.83412193 125.88275404 86.27197266 125.88647461 C87.77963764 125.88675655 89.28730275 125.88659861 90.79496765 125.8860321 C94.89597005 125.88574441 98.99694339 125.89163668 103.09793901 125.89860606 C107.3807514 125.90484419 111.66356439 125.90544376 115.94638062 125.90663147 C124.06011857 125.90974342 132.17384309 125.91795499 140.28757513 125.92798096 C149.52323597 125.9391463 158.75889744 125.94465361 167.99456334 125.94967639 C186.99638339 125.96013771 205.99819013 125.97793524 225 126 C225 133.59 225 141.18 225 149 C165.93 149 106.86 149 46 149 C45.67 149.66 45.34 150.32 45 151 C42.03 150.67 39.06 150.34 36 150 C36 149.01 36 148.02 36 147 C38.97 147 41.94 147 45 147 C45 146.01 45 145.02 45 144 C41.37 144.33 37.74 144.66 34 145 C33.67 145.99 33.34 146.98 33 148 C22.11 148 11.22 148 0 148 C0 99.16 0 50.32 0 0 Z M38 139 C38 139.33 38 139.66 38 140 C40.64 140.33 43.28 140.66 46 141 C46 140.34 46 139.68 46 139 C43.36 139 40.72 139 38 139 Z " fill="#898989" transform="translate(0,0)"/>
<path d="M0 0 C13.86 0.495 13.86 0.495 28 1 C28.495 2.485 28.495 2.485 29 4 C30.57487577 5.19173298 30.57487577 5.19173298 32.4375 6.25 C36.36482144 8.91096065 37.08103773 11.3216466 38 16 C39.06139289 18.83038105 40.25254674 21.55770739 41.5 24.3125 C42.82242866 27.56347044 43.68153953 30.57154144 44.47265625 33.96484375 C45.36649871 37.41441354 46.69482939 40.68885289 48 44 C50.6490736 50.76706478 52.54897325 56.5888611 52 64 C50.625 65.75 50.625 65.75 49 67 C48.34 67.99 47.68 68.98 47 70 C46.01 70.66 45.02 71.32 44 72 C43.67 72.66 43.34 73.32 43 74 C45.31 74.33 47.62 74.66 50 75 C49.835 76.03125 49.67 77.0625 49.5 78.125 C48.92934916 81.89635655 48.92934916 81.89635655 49 85.3125 C49 88 49 88 48 90 C40.12367833 91.27659036 31.96115596 91.14358798 24 91 C21.74576626 95.88417309 22.17586703 98.83791675 23.484375 103.8203125 C24.13933749 106.58901757 24.13487901 109.16754069 24 112 C24 115.24792684 24.6507329 117.07658794 26 120 C28.35891783 122.35891783 28.8018714 122.25419143 31.99893188 122.2784729 C32.83468246 122.28963638 33.67043304 122.30079987 34.5315094 122.31230164 C35.45004196 122.31446182 36.36857452 122.31662201 37.31494141 122.31884766 C38.28083694 122.32889328 39.24673248 122.3389389 40.24189758 122.34928894 C43.44511298 122.38026173 46.64824428 122.39719517 49.8515625 122.4140625 C52.06831595 122.43276281 54.28506219 122.45233535 56.50180054 122.4727478 C62.34448003 122.5241951 68.18718263 122.56375329 74.02996826 122.60089111 C79.98878759 122.64085196 85.94750975 122.69198032 91.90625 122.7421875 C103.60409853 122.83909588 115.30200177 122.92345278 127 123 C127 123.99 127 124.98 127 126 C126.21424434 126.00238835 125.42848867 126.00477671 124.61892223 126.00723743 C105.51561474 126.06632713 86.41243711 126.14183831 67.309268 126.23571491 C58.07118049 126.280715 48.83313189 126.32011986 39.5949707 126.34643555 C31.54467635 126.3693816 23.49450472 126.40274138 15.44430763 126.44870156 C11.18024189 126.47267976 6.91629803 126.49137831 2.65216637 126.49761391 C-1.35911691 126.5036441 -5.37008814 126.52356839 -9.3812561 126.55427551 C-10.85546391 126.56308905 -12.32971244 126.56677149 -13.80394554 126.56500816 C-15.81292098 126.56336353 -17.82188333 126.58176979 -19.83076477 126.60127258 C-20.956274 126.60588155 -22.08178324 126.61049051 -23.24139881 126.61523914 C-26.00295255 126.78465677 -26.00295255 126.78465677 -27.8855772 128.33742046 C-29.2783932 130.08174008 -29.2783932 130.08174008 -29 133 C-29 134.66666667 -29 136.33333333 -29 138 C-32.6661394 138.19891332 -36.33290953 138.38204172 -40 138.5625 C-41.02996094 138.61857422 -42.05992188 138.67464844 -43.12109375 138.73242188 C-48.90793748 139.00886345 -54.27831174 138.92839894 -60 138 C-59.54177532 134.53058454 -59.10868317 131.32604951 -58 128 C-58 125.87489788 -58.023153 123.74973783 -58.0625 121.625 C-58.00929625 118.53918267 -57.63027392 115.9938011 -57 113 C-57.061875 112.175 -57.12375 111.35 -57.1875 110.5 C-56.92886871 107.05158284 -55.16634991 105.62587868 -53 103 C-52.32041397 100.60280568 -52.32041397 100.60280568 -52 98 C-51.67 96.948125 -51.34 95.89625 -51 94.8125 C-50.00899707 91.03430132 -49.55871132 87.50400979 -49.24609375 83.625 C-48.94412638 80.40401471 -48.45751351 77.20259456 -48 74 C-42.39 74 -36.78 74 -31 74 C-31 73.01 -31 72.02 -31 71 C-36.28 70.67 -41.56 70.34 -47 70 C-46.5162394 64.27549951 -45.81387343 58.875181 -44.46875 53.296875 C-43.95488001 50.77891204 -43.7120971 48.31031498 -43.5 45.75 C-43.18628499 42.11426715 -42.45399754 39.36236932 -41 36 C-40.835 34.845 -40.67 33.69 -40.5 32.5 C-40.04322933 29.30260532 -39.30092928 26.92709087 -38 24 C-37.67 23.01 -37.34 22.02 -37 21 C-31.39 21 -25.78 21 -20 21 C-19.525625 19.040625 -19.05125 17.08125 -18.5625 15.0625 C-17.125 9.125 -17.125 9.125 -16 8 C-13.65012738 7.76472227 -11.29443961 7.58613583 -8.9375 7.4375 C-7.64714844 7.35371094 -6.35679688 7.26992187 -5.02734375 7.18359375 C-4.02832031 7.12300781 -3.02929688 7.06242188 -2 7 C-1.34 4.69 -0.68 2.38 0 0 Z M25 111 C27.97 111 30.94 111 34 111 C34 111.33 34 111.66 34 112 C29.545 112.495 29.545 112.495 25 113 C25 112.34 25 111.68 25 111 Z M-21 127 C-19 128 -19 128 -19 128 Z M-60 139 C-57.36 139 -54.72 139 -52 139 C-52.33 139.66 -52.66 140.32 -53 141 C-55.31 140.67 -57.62 140.34 -60 140 C-60 139.67 -60 139.34 -60 139 Z " fill="#3D3D3D" transform="translate(98,0)"/>
<path d="M0 0 C1.2901149 -0.00137466 2.5802298 -0.00274933 3.90943909 -0.00416565 C5.34729027 -0.00062626 6.78514122 0.00300856 8.22299194 0.00672913 C9.73065692 0.00701107 11.23832204 0.00685312 12.74598694 0.00628662 C16.84698934 0.00599892 20.94796267 0.01189119 25.0489583 0.01886058 C29.33177068 0.02509871 33.61458368 0.02569828 37.8973999 0.02688599 C46.01113785 0.02999794 54.12486238 0.03820951 62.23859441 0.04823548 C71.47425525 0.05940081 80.70991672 0.06490813 89.94558263 0.06993091 C108.94740268 0.08039223 127.94920941 0.09818976 146.95101929 0.12025452 C146.95101929 7.05025452 146.95101929 13.98025452 146.95101929 21.12025452 C88.54101929 21.12025452 30.13101929 21.12025452 -30.04898071 21.12025452 C-30.04898071 19.47025452 -30.04898071 17.82025452 -30.04898071 16.12025452 C-19.65398071 15.62525452 -19.65398071 15.62525452 -9.04898071 15.12025452 C-9.04898071 14.13025452 -9.04898071 13.14025452 -9.04898071 12.12025452 C-15.97898071 11.79025452 -22.90898071 11.46025452 -30.04898071 11.12025452 C-30.04898071 8.15025452 -30.04898071 5.18025452 -30.04898071 2.12025452 C-29.06502319 2.08267029 -29.06502319 2.08267029 -28.06118774 2.04432678 C-25.09857888 1.92852192 -22.1363004 1.80572566 -19.17398071 1.68275452 C-18.14144165 1.64343811 -17.10890259 1.6041217 -16.04507446 1.56361389 C-15.05894165 1.52171936 -14.07280884 1.47982483 -13.05679321 1.43666077 C-12.14558716 1.40000305 -11.2343811 1.36334534 -10.29556274 1.32557678 C-6.65437782 0.99279733 -3.85951936 -0.00315836 0 0 Z " fill="#868686" transform="translate(78.04898071289063,125.87974548339844)"/>
<path d="M0 0 C22.01996054 -0.12440656 43.99106735 0.35894657 66 1 C64.1875 5.828125 64.1875 5.828125 62.5 7.375 C60.19855029 9.86823719 59.8387254 12.75692845 59 16 C58.3530635 17.6744239 57.69040574 19.34302621 57 21 C56.505 22.485 56.505 22.485 56 24 C55 25 54 26 53 27 C52.505 28.485 52.505 28.485 52 30 C51 31 50 32 49 33 C48.67 33.99 48.34 34.98 48 36 C47 37 46 38 45 39 C44.566875 39.78375 44.13375 40.5675 43.6875 41.375 C41.55306172 44.69523733 39.074945 46.540044 36 49 C36 49.33 36 49.66 36 50 C35.34402832 50.02505615 34.68805664 50.0501123 34.01220703 50.07592773 C31.04959817 50.1917326 28.08731969 50.31452886 25.125 50.4375 C24.09246094 50.47681641 23.05992188 50.51613281 21.99609375 50.55664062 C21.00996094 50.59853516 20.02382813 50.64042969 19.0078125 50.68359375 C18.09660645 50.72025146 17.18540039 50.75690918 16.24658203 50.79467773 C13.96516519 50.86577065 13.96516519 50.86577065 12 52 C11.34 51.01 10.68 50.02 10 49 C9.34 49.66 8.68 50.32 8 51 C4.04 50.505 4.04 50.505 0 50 C0 33.5 0 17 0 0 Z " fill="#303030" transform="translate(0,0)"/>
<path d="M0 0 C15.18 0 30.36 0 46 0 C46 2.66666667 46 5.33333333 46 8 C47.02276532 10.9952413 47.7448078 12.7448078 50 15 C51.85429037 15.31256526 51.85429037 15.31256526 53.99893188 15.2784729 C55.25255775 15.29521812 55.25255775 15.29521812 56.5315094 15.31230164 C57.45004196 15.31446182 58.36857452 15.31662201 59.31494141 15.31884766 C60.76378471 15.33391609 60.76378471 15.33391609 62.24189758 15.34928894 C65.44511298 15.38026173 68.64824428 15.39719517 71.8515625 15.4140625 C74.06831595 15.43276281 76.28506219 15.45233535 78.50180054 15.4727478 C84.34448003 15.5241951 90.18718263 15.56375329 96.02996826 15.60089111 C101.98878759 15.64085196 107.94750975 15.69198032 113.90625 15.7421875 C125.60409853 15.83909588 137.30200177 15.92345278 149 16 C149 16.99 149 17.98 149 19 C97.85 19.33 46.7 19.66 -6 20 C-6 18 -6 18 -4 16 C-3.74313143 12.14697141 -4.18811894 8.7549499 -5 5 C-5 4.01 -5 3.02 -5 2 C-3.35 2 -1.7 2 0 2 C0 1.34 0 0.68 0 0 Z M47 4 C49.97 4 52.94 4 56 4 C56 4.33 56 4.66 56 5 C51.545 5.495 51.545 5.495 47 6 C47 5.34 47 4.68 47 4 Z M-29 18 C-21.74 18 -14.48 18 -7 18 C-5.48386658 22.54840027 -6.2943096 26.32480112 -7 31 C-10.6661394 31.19891332 -14.33290953 31.38204172 -18 31.5625 C-19.02996094 31.61857422 -20.05992188 31.67464844 -21.12109375 31.73242188 C-26.90793748 32.00886345 -32.27831174 31.92839894 -38 31 C-37 23.57142857 -37 23.57142857 -36 20 C-33.69 20 -31.38 20 -29 20 C-29 19.34 -29 18.68 -29 18 Z M1 20 C3 21 3 21 3 21 Z M-38 32 C-35.36 32 -32.72 32 -30 32 C-30.33 32.66 -30.66 33.32 -31 34 C-33.31 33.67 -35.62 33.34 -38 33 C-38 32.67 -38 32.34 -38 32 Z " fill="#363636" transform="translate(76,107)"/>
<path d="M0 0 C0.90596924 0.01571045 1.81193848 0.0314209 2.74536133 0.04760742 C3.72827148 0.05727539 4.71118164 0.06694336 5.72387695 0.0769043 C6.74803711 0.10204102 7.77219727 0.12717773 8.82739258 0.15307617 C10.38103516 0.17337891 10.38103516 0.17337891 11.96606445 0.1940918 C14.52452957 0.22946228 17.08195038 0.27882073 19.63989258 0.34057617 C19.30989258 1.99057617 18.97989258 3.64057617 18.63989258 5.34057617 C16.98989258 5.67057617 15.33989258 6.00057617 13.63989258 6.34057617 C15.28989258 6.34057617 16.93989258 6.34057617 18.63989258 6.34057617 C18.30989258 7.33057617 17.97989258 8.32057617 17.63989258 9.34057617 C15.65989258 9.34057617 13.67989258 9.34057617 11.63989258 9.34057617 C11.37176758 10.20682617 11.10364258 11.07307617 10.82739258 11.96557617 C9.6687727 15.25849581 8.25779419 18.25185492 6.63989258 21.34057617 C3.33989258 21.34057617 0.03989258 21.34057617 -3.36010742 21.34057617 C-3.36010742 22.00057617 -3.36010742 22.66057617 -3.36010742 23.34057617 C-18.21010742 23.34057617 -33.06010742 23.34057617 -48.36010742 23.34057617 C-48.36010742 21.03057617 -48.36010742 18.72057617 -48.36010742 16.34057617 C-48.56635742 15.51557617 -48.77260742 14.69057617 -48.98510742 13.84057617 C-49.50826087 10.3528865 -48.38085823 7.67554827 -47.36010742 4.34057617 C-46.10351318 4.32599365 -44.84691895 4.31141113 -43.55224609 4.29638672 C-38.89472851 4.23846013 -34.23769726 4.16122707 -29.58056641 4.078125 C-27.56404507 4.04484907 -25.54743 4.01682549 -23.53076172 3.99414062 C-20.63362642 3.96064361 -17.73735225 3.90833073 -14.84057617 3.85229492 C-13.9373613 3.845905 -13.03414642 3.83951508 -12.1035614 3.83293152 C-10.84259392 3.80324028 -10.84259392 3.80324028 -9.55615234 3.77294922 C-8.44695686 3.75629463 -8.44695686 3.75629463 -7.31535339 3.73930359 C-4.05915467 3.0752768 -3.33729405 0.48158945 0 0 Z " fill="#C2C2C2" transform="translate(126.360107421875,89.659423828125)"/>
<path d="M0 0 C1.03125 0.00322266 2.0625 0.00644531 3.125 0.00976562 C4.20523438 0.01814453 5.28546875 0.02652344 6.3984375 0.03515625 C8.03039063 0.04192383 8.03039063 0.04192383 9.6953125 0.04882812 C12.38807539 0.06063849 15.08072938 0.07710847 17.7734375 0.09765625 C17.7734375 1.08765625 17.7734375 2.07765625 17.7734375 3.09765625 C17.1134375 3.75765625 16.4534375 4.41765625 15.7734375 5.09765625 C16.2684375 6.58265625 16.2684375 6.58265625 16.7734375 8.09765625 C93.4984375 8.59265625 93.4984375 8.59265625 171.7734375 9.09765625 C171.7734375 9.75765625 171.7734375 10.41765625 171.7734375 11.09765625 C112.7034375 11.09765625 53.6334375 11.09765625 -7.2265625 11.09765625 C-7.5565625 11.75765625 -7.8865625 12.41765625 -8.2265625 13.09765625 C-11.1965625 12.76765625 -14.1665625 12.43765625 -17.2265625 12.09765625 C-17.2265625 11.10765625 -17.2265625 10.11765625 -17.2265625 9.09765625 C-14.2565625 9.09765625 -11.2865625 9.09765625 -8.2265625 9.09765625 C-8.2265625 8.10765625 -8.2265625 7.11765625 -8.2265625 6.09765625 C-11.8565625 6.42765625 -15.4865625 6.75765625 -19.2265625 7.09765625 C-19.5565625 8.08765625 -19.8865625 9.07765625 -20.2265625 10.09765625 C-31.1165625 10.09765625 -42.0065625 10.09765625 -53.2265625 10.09765625 C-53.2265625 8.44765625 -53.2265625 6.79765625 -53.2265625 5.09765625 C-41.6765625 5.09765625 -30.1265625 5.09765625 -18.2265625 5.09765625 C-18.2265625 4.43765625 -18.2265625 3.77765625 -18.2265625 3.09765625 C-14.5965625 3.09765625 -10.9665625 3.09765625 -7.2265625 3.09765625 C-7.2265625 2.43765625 -7.2265625 1.77765625 -7.2265625 1.09765625 C-4.66933021 -0.1809599 -2.85919148 -0.01570984 0 0 Z " fill="#6F6F6F" transform="translate(53.2265625,137.90234375)"/>
<path d="M0 0 C1.32 0 2.64 0 4 0 C4 1.32 4 2.64 4 4 C6.97 4 9.94 4 13 4 C13 10.93 13 17.86 13 25 C-3.83 25 -20.66 25 -38 25 C-36.68 23.02 -35.36 21.04 -34 19 C-32.57889524 15.60153315 -32.57889524 15.60153315 -32 12 C-31.40985107 11.98541748 -30.81970215 11.97083496 -30.21166992 11.95581055 C-27.53628771 11.88131156 -24.86215108 11.78466005 -22.1875 11.6875 C-20.7943457 11.65366211 -20.7943457 11.65366211 -19.37304688 11.61914062 C-18.48037109 11.58369141 -17.58769531 11.54824219 -16.66796875 11.51171875 C-15.84578857 11.48553467 -15.0236084 11.45935059 -14.17651367 11.43237305 C-11.53301688 10.90723196 -10.57609818 10.16393845 -9 8 C-9.23870425 5.38901957 -9.23870425 5.38901957 -10 3 C-10 2.67 -10 2.34 -10 2 C-8.72125 2.04125 -7.4425 2.0825 -6.125 2.125 C-3.98128508 2.24212873 -3.98128508 2.24212873 -2 2 C-1.34 1.34 -0.68 0.68 0 0 Z " fill="#868686" transform="translate(212,26)"/>
<path d="M0 0 C3.3 0 6.6 0 10 0 C9.66666667 1.66666667 9.33333333 3.33333333 9 5 C8.835 5.86625 8.67 6.7325 8.5 7.625 C8 10 8 10 7 13 C4.36 13.33 1.72 13.66 -1 14 C-1.33 14.99 -1.66 15.98 -2 17 C-14.21 17 -26.42 17 -39 17 C-39 12.05 -39 7.1 -39 2 C-26.13 2 -13.26 2 0 2 C0 1.34 0 0.68 0 0 Z " fill="#646464" transform="translate(39,109)"/>
<path d="M0 0 C4.62 0 9.24 0 14 0 C13.34 1.65 12.68 3.3 12 5 C16.29 5.33 20.58 5.66 25 6 C27 12 27 12 27.9375 14.9375 C28.72243241 17.19995224 29.6145892 19.42584695 30.5625 21.625 C32 25 32 25 33 29 C14.19 29 -4.62 29 -24 29 C-24 24.89925355 -23.86814026 23.01080207 -22.5625 19.375 C-22.29566406 18.61960937 -22.02882812 17.86421875 -21.75390625 17.0859375 C-21.50511719 16.39757812 -21.25632813 15.70921875 -21 15 C-20.67 14.01 -20.34 13.02 -20 12 C-14.39 12 -8.78 12 -3 12 C-2.01 8.04 -1.02 4.08 0 0 Z " fill="#010101" transform="translate(81,9)"/>
<path d="M0 0 C1.21438751 -0.00137466 2.42877502 -0.00274933 3.67996216 -0.00416565 C5.03280664 -0.00062629 6.38565088 0.00300853 7.73849487 0.00672913 C9.15749103 0.00701108 10.57648733 0.00685311 11.9954834 0.00628662 C15.85475872 0.00599896 19.71400315 0.0118906 23.57327127 0.01886058 C27.60383861 0.02509936 31.63440661 0.02569833 35.66497803 0.02688599 C43.30060082 0.02999775 50.93620936 0.03820906 58.57182586 0.04823548 C67.2633615 0.05940141 75.95489781 0.06490828 84.64643884 0.06993091 C102.52853202 0.08039179 120.41061191 0.09798825 138.29269409 0.12025452 C138.29269409 1.44025452 138.29269409 2.76025452 138.29269409 4.12025452 C90.44269409 4.45025452 42.59269409 4.78025452 -6.70730591 5.12025452 C-6.70730591 5.78025452 -6.70730591 6.44025452 -6.70730591 7.12025452 C-7.69730591 6.79025452 -8.68730591 6.46025452 -9.70730591 6.12025452 C-9.70730591 5.13025452 -9.70730591 4.14025452 -9.70730591 3.12025452 C-9.04730591 3.12025452 -8.38730591 3.12025452 -7.70730591 3.12025452 C-7.70730591 2.46025452 -7.70730591 1.80025452 -7.70730591 1.12025452 C-5.03219212 -0.21730238 -2.99663072 -0.00260577 0 0 Z " fill="#7D7D7D" transform="translate(86.70730590820313,125.87974548339844)"/>
<path d="M0 0 C0.80050781 0.03480469 1.60101563 0.06960937 2.42578125 0.10546875 C3.63814453 0.14607422 3.63814453 0.14607422 4.875 0.1875 C5.48988281 0.22230469 6.10476562 0.25710937 6.73828125 0.29296875 C6.73828125 3.29296875 6.73828125 6.29296875 6.73828125 9.29296875 C6.24328125 8.79796875 6.24328125 8.79796875 5.73828125 8.29296875 C3.88936179 8.05932994 2.03340094 7.8799324 0.17578125 7.73046875 C-0.83613281 7.64667969 -1.84804688 7.56289062 -2.890625 7.4765625 C-4.06431641 7.38568359 -4.06431641 7.38568359 -5.26171875 7.29296875 C-5.26171875 7.95296875 -5.26171875 8.61296875 -5.26171875 9.29296875 C-16.15171875 9.29296875 -27.04171875 9.29296875 -38.26171875 9.29296875 C-38.26171875 7.64296875 -38.26171875 5.99296875 -38.26171875 4.29296875 C-37.27776123 4.27838623 -36.29380371 4.26380371 -35.2800293 4.2487793 C-31.62878101 4.19079877 -27.97814964 4.1135669 -24.32739258 4.03051758 C-22.74741632 3.99726687 -21.16732123 3.96923529 -19.5871582 3.9465332 C-17.31540296 3.91298859 -15.04473672 3.86067648 -12.7734375 3.8046875 C-12.06708664 3.79829758 -11.36073578 3.79190765 -10.63298035 3.7853241 C-6.71933251 3.70338758 -6.71933251 3.70338758 -3.43359375 1.77929688 C-2.26171875 0.29296875 -2.26171875 0.29296875 0 0 Z M7.73828125 5.29296875 C66.80828125 5.29296875 125.87828125 5.29296875 186.73828125 5.29296875 C186.73828125 5.95296875 186.73828125 6.61296875 186.73828125 7.29296875 C127.66828125 7.29296875 68.59828125 7.29296875 7.73828125 7.29296875 C7.73828125 6.63296875 7.73828125 5.97296875 7.73828125 5.29296875 Z " fill="#7D7D7D" transform="translate(38.26171875,143.70703125)"/>
<path d="M0 0 C3.63 0 7.26 0 11 0 C11.66 1.65 12.32 3.3 13 5 C11.68 5.33 10.36 5.66 9 6 C9 6.66 9 7.32 9 8 C5.7 8 2.4 8 -1 8 C-1 8.66 -1 9.32 -1 10 C-11.56 10 -22.12 10 -33 10 C-33 7.36 -33 4.72 -33 2 C-22.11 2 -11.22 2 0 2 C0 1.34 0 0.68 0 0 Z " fill="#6D6D6D" transform="translate(33,151)"/>
<path d="M0 0 C1.03125 0.00322266 2.0625 0.00644531 3.125 0.00976562 C4.20523438 0.01814453 5.28546875 0.02652344 6.3984375 0.03515625 C8.03039063 0.04192383 8.03039063 0.04192383 9.6953125 0.04882812 C12.38807539 0.06063849 15.08072938 0.07710847 17.7734375 0.09765625 C17.7734375 1.08765625 17.7734375 2.07765625 17.7734375 3.09765625 C17.1134375 3.75765625 16.4534375 4.41765625 15.7734375 5.09765625 C15.7734375 5.42765625 15.7734375 5.75765625 15.7734375 6.09765625 C8.1834375 6.42765625 0.5934375 6.75765625 -7.2265625 7.09765625 C-7.5565625 7.75765625 -7.8865625 8.41765625 -8.2265625 9.09765625 C-8.2265625 8.10765625 -8.2265625 7.11765625 -8.2265625 6.09765625 C-11.8565625 6.42765625 -15.4865625 6.75765625 -19.2265625 7.09765625 C-19.5565625 8.08765625 -19.8865625 9.07765625 -20.2265625 10.09765625 C-31.1165625 10.09765625 -42.0065625 10.09765625 -53.2265625 10.09765625 C-53.2265625 8.44765625 -53.2265625 6.79765625 -53.2265625 5.09765625 C-41.6765625 5.09765625 -30.1265625 5.09765625 -18.2265625 5.09765625 C-18.2265625 4.43765625 -18.2265625 3.77765625 -18.2265625 3.09765625 C-14.5965625 3.09765625 -10.9665625 3.09765625 -7.2265625 3.09765625 C-7.2265625 2.43765625 -7.2265625 1.77765625 -7.2265625 1.09765625 C-4.66933021 -0.1809599 -2.85919148 -0.01570984 0 0 Z " fill="#464646" transform="translate(53.2265625,137.90234375)"/>
<path d="M0 0 C3.3 0 6.6 0 10 0 C9.67 1.65 9.34 3.3 9 5 C4.545 5.495 4.545 5.495 0 6 C0 6.66 0 7.32 0 8 C-12.87 8 -25.74 8 -39 8 C-39 6.02 -39 4.04 -39 2 C-26.13 2 -13.26 2 0 2 C0 1.34 0 0.68 0 0 Z " fill="#6C6C6C" transform="translate(39,109)"/>
<path d="M0 0 C0.80050781 0.03480469 1.60101563 0.06960937 2.42578125 0.10546875 C3.63814453 0.14607422 3.63814453 0.14607422 4.875 0.1875 C5.48988281 0.22230469 6.10476562 0.25710937 6.73828125 0.29296875 C6.73828125 2.60296875 6.73828125 4.91296875 6.73828125 7.29296875 C2.77828125 7.29296875 -1.18171875 7.29296875 -5.26171875 7.29296875 C-5.26171875 7.95296875 -5.26171875 8.61296875 -5.26171875 9.29296875 C-16.15171875 9.29296875 -27.04171875 9.29296875 -38.26171875 9.29296875 C-38.26171875 7.64296875 -38.26171875 5.99296875 -38.26171875 4.29296875 C-37.27776123 4.27838623 -36.29380371 4.26380371 -35.2800293 4.2487793 C-31.62878101 4.19079877 -27.97814964 4.1135669 -24.32739258 4.03051758 C-22.74741632 3.99726687 -21.16732123 3.96923529 -19.5871582 3.9465332 C-17.31540296 3.91298859 -15.04473672 3.86067648 -12.7734375 3.8046875 C-12.06708664 3.79829758 -11.36073578 3.79190765 -10.63298035 3.7853241 C-6.71933251 3.70338758 -6.71933251 3.70338758 -3.43359375 1.77929688 C-2.26171875 0.29296875 -2.26171875 0.29296875 0 0 Z " fill="#989898" transform="translate(38.26171875,143.70703125)"/>
<path d="M0 0 C15.18 0 30.36 0 46 0 C46 1.65 46 3.3 46 5 C46.495 5.99 46.495 5.99 47 7 C31.82 7.33 16.64 7.66 1 8 C0.67 8.66 0.34 9.32 0 10 C-1.65 9.67 -3.3 9.34 -5 9 C-5 6.69 -5 4.38 -5 2 C-3.35 2 -1.7 2 0 2 C0 1.34 0 0.68 0 0 Z M47 4 C49.97 4 52.94 4 56 4 C56 4.33 56 4.66 56 5 C51.545 5.495 51.545 5.495 47 6 C47 5.34 47 4.68 47 4 Z " fill="#010101" transform="translate(76,107)"/>
<path d="M0 0 C7.26 0 14.52 0 22 0 C22 4.33333333 22 8.66666667 22 13 C18.3338606 13.19891332 14.66709047 13.38204172 11 13.5625 C9.97003906 13.61857422 8.94007812 13.67464844 7.87890625 13.73242188 C2.09206252 14.00886345 -3.27831174 13.92839894 -9 13 C-8 5.57142857 -8 5.57142857 -7 2 C-4.69 2 -2.38 2 0 2 C0 1.34 0 0.68 0 0 Z M-9 14 C-6.36 14 -3.72 14 -1 14 C-1.33 14.66 -1.66 15.32 -2 16 C-4.31 15.67 -6.62 15.34 -9 15 C-9 14.67 -9 14.34 -9 14 Z " fill="#010101" transform="translate(47,125)"/>
<path d="M0 0 C1.39969427 0.05838817 2.7994344 0.11568762 4.19921875 0.171875 C7.59175032 0.31225562 10.98341654 0.4635568 14.375 0.625 C11.08751009 5.4372199 11.08751009 5.4372199 7.93310547 6.26855469 C6.60110107 6.28257324 6.60110107 6.28257324 5.2421875 6.296875 C4.27152344 6.32136719 3.30085938 6.34585938 2.30078125 6.37109375 C0.79064453 6.37302734 0.79064453 6.37302734 -0.75 6.375 C-2.75266281 6.40808083 -4.75527589 6.4443776 -6.7578125 6.484375 C-8.08643311 6.49162598 -8.08643311 6.49162598 -9.44189453 6.49902344 C-11.67107952 6.48347998 -11.67107952 6.48347998 -13.625 7.625 C-14.285 6.635 -14.945 5.645 -15.625 4.625 C-16.285 5.285 -16.945 5.945 -17.625 6.625 C-20.35369407 6.59212417 -22.9216618 6.06102229 -25.625 5.625 C-25.625 4.305 -25.625 2.985 -25.625 1.625 C-17.07117184 -0.72825884 -8.76479518 -0.42104367 0 0 Z " fill="#010101" transform="translate(25.625,44.375)"/>
<path d="M0 0 C0.98613281 0.00322266 1.97226563 0.00644531 2.98828125 0.00976562 C4.02082031 0.01814453 5.05335938 0.02652344 6.1171875 0.03515625 C7.67759766 0.04192383 7.67759766 0.04192383 9.26953125 0.04882812 C11.84380712 0.06063673 14.41796896 0.0771055 16.9921875 0.09765625 C16.9921875 1.08765625 16.9921875 2.07765625 16.9921875 3.09765625 C9.0721875 3.09765625 1.1521875 3.09765625 -7.0078125 3.09765625 C-7.0078125 2.43765625 -7.0078125 1.77765625 -7.0078125 1.09765625 C-4.50284246 -0.15482877 -2.79927976 -0.01608781 0 0 Z M-8.0078125 3.09765625 C-7.5128125 4.08765625 -7.5128125 4.08765625 -7.0078125 5.09765625 C-21.1978125 5.09765625 -35.3878125 5.09765625 -50.0078125 5.09765625 C-50.0078125 4.76765625 -50.0078125 4.43765625 -50.0078125 4.09765625 C-36.1478125 3.76765625 -22.2878125 3.43765625 -8.0078125 3.09765625 Z " fill="#B6B6B6" transform="translate(129.0078125,89.90234375)"/>
<path d="M0 0 C0 1.65 0 3.3 0 5 C-2.97 5 -5.94 5 -9 5 C-9 6.32 -9 7.64 -9 9 C-10.65 9 -12.3 9 -14 9 C-14 9.66 -14 10.32 -14 11 C-17.3 11 -20.6 11 -24 11 C-24 10.01 -24 9.02 -24 8 C-20.7 7.67 -17.4 7.34 -14 7 C-13.67 6.01 -13.34 5.02 -13 4 C-16.96 3.67 -20.92 3.34 -25 3 C-25 2.67 -25 2.34 -25 2 C-23.41058594 1.90912109 -23.41058594 1.90912109 -21.7890625 1.81640625 C-20.40102779 1.73199873 -19.01300768 1.64735083 -17.625 1.5625 C-16.92632812 1.52318359 -16.22765625 1.48386719 -15.5078125 1.44335938 C-10.03054718 1.10103029 -5.5949148 -0.09024056 0 0 Z " fill="#ABABAB" transform="translate(225,16)"/>
<path d="M0 0 C0.91007812 0.00902344 1.82015625 0.01804687 2.7578125 0.02734375 C3.80582031 0.04474609 3.80582031 0.04474609 4.875 0.0625 C4.875 1.7125 4.875 3.3625 4.875 5.0625 C1.575 5.0625 -1.725 5.0625 -5.125 5.0625 C-5.125 5.7225 -5.125 6.3825 -5.125 7.0625 C-10.075 7.0625 -15.025 7.0625 -20.125 7.0625 C-20.455 5.4125 -20.785 3.7625 -21.125 2.0625 C-20.13757813 2.00191406 -19.15015625 1.94132813 -18.1328125 1.87890625 C-16.85148438 1.79511719 -15.57015625 1.71132812 -14.25 1.625 C-12.97382813 1.54378906 -11.69765625 1.46257813 -10.3828125 1.37890625 C-6.62084233 1.01353505 -3.87130779 -0.04963215 0 0 Z " fill="#B2B2B2" transform="translate(220.125,9.9375)"/>
<path d="M0 0 C0 0.99 0 1.98 0 3 C-3.22791555 5.1519437 -4.28400809 5.20086443 -8 5 C-8 5.66 -8 6.32 -8 7 C-15.59 7 -23.18 7 -31 7 C-31 5.35 -31 3.7 -31 2 C-30.01604248 1.96241577 -30.01604248 1.96241577 -29.01220703 1.92407227 C-26.04959817 1.8082674 -23.08731969 1.68547114 -20.125 1.5625 C-19.09246094 1.52318359 -18.05992188 1.48386719 -16.99609375 1.44335938 C-16.00996094 1.40146484 -15.02382813 1.35957031 -14.0078125 1.31640625 C-13.09660645 1.27974854 -12.18540039 1.24309082 -11.24658203 1.20532227 C-7.34067461 0.84834898 -4.14796355 -0.07681414 0 0 Z " fill="#C5C5C5" transform="translate(79,126)"/>
<path d="M0 0 C2.97 0 5.94 0 9 0 C9 2.97 9 5.94 9 9 C4.545 9.495 4.545 9.495 0 10 C-0.33 9.34 -0.66 8.68 -1 8 C-0.67 7.01 -0.34 6.02 0 5 C-0.66 4.67 -1.32 4.34 -2 4 C-1.34 2.68 -0.68 1.36 0 0 Z " fill="#515151" transform="translate(216,21)"/>
<path d="M0 0 C1.03125 0.00322266 2.0625 0.00644531 3.125 0.00976562 C4.74535156 0.02233398 4.74535156 0.02233398 6.3984375 0.03515625 C8.03039062 0.04192383 8.03039062 0.04192383 9.6953125 0.04882812 C12.38807539 0.06063849 15.08072938 0.07710847 17.7734375 0.09765625 C17.7734375 1.08765625 17.7734375 2.07765625 17.7734375 3.09765625 C9.5234375 3.09765625 1.2734375 3.09765625 -7.2265625 3.09765625 C-7.2265625 2.43765625 -7.2265625 1.77765625 -7.2265625 1.09765625 C-4.66933021 -0.1809599 -2.85919148 -0.01570984 0 0 Z M-8.2265625 3.09765625 C-7.8965625 3.75765625 -7.5665625 4.41765625 -7.2265625 5.09765625 C-10.5265625 5.09765625 -13.8265625 5.09765625 -17.2265625 5.09765625 C-17.2265625 4.76765625 -17.2265625 4.43765625 -17.2265625 4.09765625 C-12.7715625 3.60265625 -12.7715625 3.60265625 -8.2265625 3.09765625 Z " fill="#AAAAAA" transform="translate(53.2265625,137.90234375)"/>
<path d="M0 0 C1.65 0.33 3.3 0.66 5 1 C5 1.66 5 2.32 5 3 C5.66 3.33 6.32 3.66 7 4 C5.02 4 3.04 4 1 4 C1 4.66 1 5.32 1 6 C-2.63 6 -6.26 6 -10 6 C-10 4.68 -10 3.36 -10 2 C-6.7 2 -3.4 2 0 2 C0 1.34 0 0.68 0 0 Z " fill="#707070" transform="translate(10,57)"/>
<path d="M0 0 C2.64 0 5.28 0 8 0 C8 0.99 8 1.98 8 3 C6.865625 3.12375 5.73125 3.2475 4.5625 3.375 C2.7990625 3.684375 2.7990625 3.684375 1 4 C0.67 4.66 0.34 5.32 0 6 C-5.94 5.67 -11.88 5.34 -18 5 C-18 4.01 -18 3.02 -18 2 C-12.06 2 -6.12 2 0 2 C0 1.34 0 0.68 0 0 Z " fill="#040404" transform="translate(200,31)"/>
<path d="M0 0 C0.66 0.33 1.32 0.66 2 1 C2.625 3.0625 2.625 3.0625 3 5 C1.68 5 0.36 5 -1 5 C-1 5.66 -1 6.32 -1 7 C-3.97 7 -6.94 7 -10 7 C-10 5.35 -10 3.7 -10 2 C-8.72125 2.04125 -7.4425 2.0825 -6.125 2.125 C-3.98128508 2.24212873 -3.98128508 2.24212873 -2 2 C-1.34 1.34 -0.68 0.68 0 0 Z " fill="#868686" transform="translate(10,48)"/>
<path d="M0 0 C0 0.66 0 1.32 0 2 C-13.72117696 3.32917512 -27.25491456 2.7250697 -41 2 C-41 1.67 -41 1.34 -41 1 C-27.32799033 0.38508665 -13.6878342 -0.18359241 0 0 Z " fill="#A5A5A5" transform="translate(225,1)"/>
<path d="M0 0 C8.58 0 17.16 0 26 0 C25.01 1.485 25.01 1.485 24 3 C21.78515625 3.41650391 21.78515625 3.41650391 19.0625 3.4765625 C17.59683594 3.52296875 17.59683594 3.52296875 16.1015625 3.5703125 C15.07804687 3.58835938 14.05453125 3.60640625 13 3.625 C10.97906785 3.67590509 8.95822224 3.73041357 6.9375 3.7890625 C5.58978516 3.81540771 5.58978516 3.81540771 4.21484375 3.84228516 C1.95926871 3.86096795 1.95926871 3.86096795 0 5 C-0.33 4.01 -0.66 3.02 -1 2 C-0.67 1.34 -0.34 0.68 0 0 Z " fill="#020202" transform="translate(12,47)"/>
<path d="M0 0 C4.29 0 8.58 0 13 0 C13 0.99 13 1.98 13 3 C8.71 3 4.42 3 0 3 C0 3.66 0 4.32 0 5 C-4.29 5 -8.58 5 -13 5 C-13 4.67 -13 4.34 -13 4 C-9.04 4 -5.08 4 -1 4 C-0.67 2.68 -0.34 1.36 0 0 Z " fill="#ACACAC" transform="translate(212,4)"/>
<path d="M0 0 C3.63 0 7.26 0 11 0 C11.33 1.65 11.66 3.3 12 5 C10.68 5 9.36 5 8 5 C7.67 5.66 7.34 6.32 7 7 C7 6.34 7 5.68 7 5 C4.69 5 2.38 5 0 5 C0 3.35 0 1.7 0 0 Z " fill="#A1A1A1" transform="translate(34,152)"/>
<path d="M0 0 C0.99 0.33 1.98 0.66 3 1 C3 1.66 3 2.32 3 3 C1.68 3 0.36 3 -1 3 C-1 3.66 -1 4.32 -1 5 C-4.3 5 -7.6 5 -11 5 C-11 4.01 -11 3.02 -11 2 C-10.06027344 1.90912109 -10.06027344 1.90912109 -9.1015625 1.81640625 C-7.87566406 1.69072266 -7.87566406 1.69072266 -6.625 1.5625 C-5.81289062 1.48128906 -5.00078125 1.40007813 -4.1640625 1.31640625 C-1.95727195 1.10909886 -1.95727195 1.10909886 0 0 Z " fill="#939393" transform="translate(11,54)"/>
<path d="M0 0 C4.62 0 9.24 0 14 0 C14 0.99 14 1.98 14 3 C10.73086376 4.03115279 8.13958652 3.9638984 4.75 3.5625 C3.85796875 3.46066406 2.9659375 3.35882812 2.046875 3.25390625 C1.37140625 3.17011719 0.6959375 3.08632813 0 3 C0 2.01 0 1.02 0 0 Z M0 4 C3.3 4 6.6 4 10 4 C10 4.33 10 4.66 10 5 C6.7 5 3.4 5 0 5 C0 4.67 0 4.34 0 4 Z " fill="#000000" transform="translate(201,19)"/>
<path d="M0 0 C0 0.99 0 1.98 0 3 C-0.99 3 -1.98 3 -3 3 C-3 3.66 -3 4.32 -3 5 C-5.97 5 -8.94 5 -12 5 C-12 4.01 -12 3.02 -12 2 C-10.37548581 1.66430703 -8.75037083 1.3315204 -7.125 1 C-6.22007812 0.814375 -5.31515625 0.62875 -4.3828125 0.4375 C-2 0 -2 0 0 0 Z " fill="#7F7F7F" transform="translate(12,44)"/>
<path d="M0 0 C0 0.66 0 1.32 0 2 C-1.27875 2.144375 -2.5575 2.28875 -3.875 2.4375 C-6.25692894 2.70642746 -7.84452691 2.92226346 -10 4 C-12.55807762 3.91089842 -15.0762601 3.76705754 -17.625 3.5625 C-18.33140625 3.51029297 -19.0378125 3.45808594 -19.765625 3.40429688 C-21.51079987 3.27458793 -23.25545725 3.13795046 -25 3 C-25 2.67 -25 2.34 -25 2 C-23.41058594 1.90912109 -23.41058594 1.90912109 -21.7890625 1.81640625 C-20.40102779 1.73199873 -19.01300768 1.64735083 -17.625 1.5625 C-16.92632812 1.52318359 -16.22765625 1.48386719 -15.5078125 1.44335938 C-10.03054718 1.10103029 -5.5949148 -0.09024056 0 0 Z " fill="#9F9F9F" transform="translate(225,16)"/>
<path d="M0 0 C0 0.99 0 1.98 0 3 C-2.97 3 -5.94 3 -9 3 C-9 3.66 -9 4.32 -9 5 C-10.32 4.67 -11.64 4.34 -13 4 C-13 3.34 -13 2.68 -13 2 C-8.49646738 0.24252386 -4.82360189 -0.19294408 0 0 Z " fill="#9C9C9C" transform="translate(225,30)"/>
<path d="M0 0 C4.29 0.33 8.58 0.66 13 1 C13 1.33 13 1.66 13 2 C6.565 2.495 6.565 2.495 0 3 C0 2.01 0 1.02 0 0 Z " fill="#0E0E0E" transform="translate(80,12)"/>
</svg>
